<svg width="512" height="512" viewBox="0 0 512 512" fill="none" xmlns="http://www.w3.org/2000/svg">
<path d="M272 160V307.37L336 243.37L358.63 266L256 368.63L153.37 266L176 243.37L240 307.37V160H92C88.8174 160 85.7652 161.264 83.5147 163.515C81.2643 165.765 80 168.817 80 172V468C80 471.183 81.2643 474.235 83.5147 476.485C85.7652 478.736 88.8174 480 92 480H420C423.183 480 426.235 478.736 428.485 476.485C430.736 474.235 432 471.183 432 468V172C432 168.817 430.736 165.765 428.485 163.515C426.235 161.264 423.183 160 420 160H272ZM240 32H272V160H240V32Z" fill="black"/>
</svg>
