<svg width="512" height="512" viewBox="0 0 512 512" fill="none" xmlns="http://www.w3.org/2000/svg">
<path d="M112 80H400V56C400 49.6348 397.471 43.5303 392.971 39.0294C388.47 34.5286 382.365 32 376 32H66C56.9826 32 48.3346 35.5821 41.9584 41.9584C35.5821 48.3346 32 56.9826 32 66V376C32 382.365 34.5286 388.47 39.0294 392.971C43.5303 397.471 49.6348 400 56 400H80V112C80 103.513 83.3714 95.3737 89.3726 89.3726C95.3737 83.3714 103.513 80 112 80Z" fill="black"/>
<path d="M456 112H136C129.635 112 123.53 114.529 119.029 119.029C114.529 123.53 112 129.635 112 136V456C112 462.365 114.529 468.47 119.029 472.971C123.53 477.471 129.635 480 136 480H456C462.365 480 468.47 477.471 472.971 472.971C477.471 468.47 480 462.365 480 456V136C480 129.635 477.471 123.53 472.971 119.029C468.47 114.529 462.365 112 456 112ZM392 312H312V392H280V312H200V280H280V200H312V280H392V312Z" fill="black"/>
</svg>
