<svg width="512" height="512" viewBox="0 0 512 512" fill="none" xmlns="http://www.w3.org/2000/svg">
<path fill-rule="evenodd" clip-rule="evenodd" d="M292.702 109.79C286.511 106.778 273.227 103.792 256.26 103.998C238.277 104.246 220.512 108.227 206.261 119.973M292.702 109.79C308.694 117.626 332 133.032 332 164C332 198.056 312.286 213.342 278.318 236.7C261.162 248.498 248.079 259.6 239.613 272.636C230.605 286.507 228 300.676 228 316V336H268V316C268 305.685 269.635 299.848 273.159 294.422C277.226 288.16 284.968 280.672 300.982 269.66L301.751 269.131C333.963 246.984 372 220.831 372 164C372 108.18 328.504 82.7857 310.277 73.8586L310.261 73.8506L310.244 73.8426C296.41 67.0982 276.227 63.7501 255.754 64.0015L255.741 64.0017L255.727 64.0019C232.695 64.3163 204.685 69.4359 180.819 89.1068L180.819 89.1072C162.619 104.109 152.107 118.99 146.321 132.632C140.501 146.35 140 157.572 140 164V184H180V164C180 160.428 180.219 155.15 183.144 148.253C186.102 141.28 192.361 131.431 206.261 119.973" fill="black"/>
<path d="M272.5 368H223.5C221.567 368 220 369.567 220 371.5V420.5C220 422.433 221.567 424 223.5 424H272.5C274.433 424 276 422.433 276 420.5V371.5C276 369.567 274.433 368 272.5 368Z" fill="black"/>
</svg>
