<svg width="512" height="512" viewBox="0 0 512 512" fill="none" xmlns="http://www.w3.org/2000/svg">
<g clip-path="url(#clip0_11_270)">
<path d="M80 132V460C80 465.304 82.1071 470.391 85.8579 474.142C89.6086 477.893 94.6957 480 100 480H492C497.304 480 502.391 477.893 506.142 474.142C509.893 470.391 512 465.304 512 460V132C512 126.696 509.893 121.609 506.142 117.858C502.391 114.107 497.304 112 492 112H100C94.6957 112 89.6086 114.107 85.8579 117.858C82.1071 121.609 80 126.696 80 132ZM373.14 173.33C382.226 173.385 391.092 176.13 398.619 181.218C406.147 186.306 412 193.51 415.438 201.92C418.877 210.33 419.748 219.57 417.942 228.475C416.135 237.379 411.732 245.549 405.288 251.955C398.844 258.36 390.647 262.713 381.732 264.466C372.816 266.218 363.582 265.291 355.193 261.801C346.803 258.311 339.636 252.415 334.593 244.857C329.551 237.298 326.86 228.416 326.86 219.33C326.91 207.097 331.811 195.384 340.488 186.76C349.164 178.136 360.907 173.306 373.14 173.33ZM111.73 449.33V353.85L234.49 243.65L328.27 337L215.27 449.33H111.73ZM480 449.33H259L403.58 305.33L480 370.59V449.33Z" fill="black"/>
<path d="M20 32C14.6957 32 9.60859 34.1071 5.85786 37.8579C2.10714 41.6086 0 46.6957 0 52L0 396C0 401.304 2.10714 406.391 5.85786 410.142C9.60859 413.893 14.6957 416 20 416H48V100C48 94.6957 50.1071 89.6086 53.8579 85.8579C57.6086 82.1071 62.6957 80 68 80H448V52C448 46.6957 445.893 41.6086 442.142 37.8579C438.391 34.1071 433.304 32 428 32H20Z" fill="black"/>
</g>
<defs>
<clipPath id="clip0_11_270">
<rect width="512" height="512" fill="white"/>
</clipPath>
</defs>
</svg>
