<svg width="512" height="512" viewBox="0 0 512 512" fill="none" xmlns="http://www.w3.org/2000/svg">
<path fill-rule="evenodd" clip-rule="evenodd" d="M176 200H280V376H345V416H167V376H240V240H176V200Z" fill="black"/>
<path d="M256 160C249.671 160 243.484 158.123 238.222 154.607C232.959 151.091 228.858 146.093 226.436 140.246C224.014 134.399 223.38 127.965 224.615 121.757C225.85 115.55 228.897 109.848 233.373 105.373C237.848 100.897 243.55 97.8496 249.757 96.6149C255.965 95.3801 262.399 96.0138 268.246 98.4359C274.093 100.858 279.091 104.959 282.607 110.222C286.123 115.484 288 121.671 288 128C288 136.487 284.629 144.626 278.627 150.627C272.626 156.629 264.487 160 256 160Z" fill="black"/>
</svg>
