<svg width="512" height="512" viewBox="0 0 512 512" fill="none" xmlns="http://www.w3.org/2000/svg">
<path fill-rule="evenodd" clip-rule="evenodd" d="M256 9.37256L347.314 100.686L324.686 123.314L271.982 70.6091L271.989 240H441.373L388.686 187.314L411.314 164.686L502.627 256L411.314 347.314L388.686 324.686L441.373 272H271.991L271.998 441.374L324.686 388.686L347.314 411.314L256 502.627L164.686 411.314L187.314 388.686L239.998 441.371L239.991 272H70.6274L123.314 324.686L100.686 347.314L9.37256 256L100.686 164.686L123.314 187.314L70.6274 240H239.989L239.982 70.6457L187.314 123.314L164.686 100.686L256 9.37256Z" fill="black"/>
</svg>
