<svg width="512" height="512" viewBox="0 0 512 512" fill="none" xmlns="http://www.w3.org/2000/svg">
<path fill-rule="evenodd" clip-rule="evenodd" d="M170.773 80.2484C197.202 67.5449 226.156 60.9656 255.48 61.0001C363.237 61.0053 450.67 148.192 450.67 255.79V301.59H418.67V255.79C418.67 165.931 345.628 93.0001 255.47 93.0001H255.46L255.45 93.0001C230.936 92.97 206.73 98.4696 184.636 109.09C162.541 119.71 143.126 135.177 127.837 154.339L117.858 166.846L92.8443 146.888L102.823 134.381C121.114 111.457 144.34 92.9534 170.773 80.2484ZM92.8 210.36V256.16C92.8 346.13 165.802 418.999 255.997 419C280.454 418.962 304.594 413.469 326.66 402.921C348.732 392.371 368.172 377.029 383.564 358.014L393.63 345.577L418.503 365.71L408.437 378.146C390.05 400.862 366.828 419.189 340.461 431.793C314.094 444.396 285.247 450.958 256.023 451L256.012 451H256C148.196 451 60.8 363.869 60.8 256.16V210.36H92.8Z" fill="black"/>
<path fill-rule="evenodd" clip-rule="evenodd" d="M75.7514 189.621L144.622 255.497L122.503 278.622L76.2486 234.379L32 278.627L9.37256 256L75.7514 189.621ZM502.627 256L436.249 322.379L367.378 256.503L389.497 233.378L435.751 277.621L480 233.372L502.627 256Z" fill="black"/>
</svg>
