<svg width="92" height="152" viewBox="0 0 92 152" fill="none" xmlns="http://www.w3.org/2000/svg">
<path fill-rule="evenodd" clip-rule="evenodd" d="M0 152L6.64413e-06 8.74228e-08L4.00001 2.62268e-07L4 152H0Z" fill="black"/>
<path fill-rule="evenodd" clip-rule="evenodd" d="M8.00001 152L8.00001 0L12 1.74846e-07L12 152H8.00001Z" fill="black"/>
<path fill-rule="evenodd" clip-rule="evenodd" d="M16 152L16 0L20 1.74846e-07L20 152H16Z" fill="black"/>
<path fill-rule="evenodd" clip-rule="evenodd" d="M24 152L24 0L28 1.74846e-07L28 152H24Z" fill="black"/>
<path fill-rule="evenodd" clip-rule="evenodd" d="M32 152L32 0L36 1.74846e-07L36 152H32Z" fill="black"/>
<path fill-rule="evenodd" clip-rule="evenodd" d="M40 152L40 0L44 1.74846e-07L44 152H40Z" fill="black"/>
<path fill-rule="evenodd" clip-rule="evenodd" d="M48 152L48 0L52 1.74846e-07L52 152H48Z" fill="black"/>
<path fill-rule="evenodd" clip-rule="evenodd" d="M56 152L56.0001 0L60.0001 1.74846e-07L60 152H56Z" fill="black"/>
<path fill-rule="evenodd" clip-rule="evenodd" d="M64.0001 152L64.0001 0L68.0001 1.74846e-07L68.0001 152H64.0001Z" fill="black"/>
<path fill-rule="evenodd" clip-rule="evenodd" d="M72.0001 152L72.0001 0L76.0001 1.74846e-07L76.0001 152H72.0001Z" fill="black"/>
<path fill-rule="evenodd" clip-rule="evenodd" d="M80.0001 152L80.0001 0L84.0001 1.74846e-07L84.0001 152H80.0001Z" fill="black"/>
<path fill-rule="evenodd" clip-rule="evenodd" d="M88.0001 152L88.0001 0L92.0001 1.74846e-07L92.0001 152H88.0001Z" fill="black"/>
</svg>
